<svg width="22" height="21" viewBox="0 0 22 21" fill="none" xmlns="http://www.w3.org/2000/svg">
<path fill-rule="evenodd" clip-rule="evenodd" d="M11.0004 1.99994C15.9709 1.99994 20.0009 5.91043 20.0009 10.7345C20.0009 15.5582 15.9709 19.4687 11.0004 19.4687C6.02884 19.4687 1.99991 15.5582 1.99991 10.7345C1.99991 5.91043 6.02884 1.99994 11.0004 1.99994Z" fill="#007AFF"/>
<path fill-rule="evenodd" clip-rule="evenodd" d="M13.7331 5.49652L12.0054 5.49437C10.0654 5.49437 8.81077 6.61889 8.81077 8.35997V9.68099H7.07329C6.9244 9.68099 6.80178 9.78739 6.80178 9.9193V11.8335C6.80178 11.9645 6.9244 12.0709 7.07329 12.0709H8.80967V16.9017C8.80967 17.0327 8.9323 17.1397 9.08119 17.1397H11.3475C11.4985 17.1397 11.6201 17.0327 11.6201 16.9017V12.0709H13.651C13.801 12.0709 13.9225 11.9645 13.9225 11.8335L13.9236 9.9193C13.9236 9.85596 13.8951 9.79568 13.8447 9.7514C13.7933 9.70589 13.7243 9.68099 13.6521 9.68099H11.6201V8.56108C11.6201 8.02295 11.7668 7.74928 12.5693 7.74928H13.732C13.8842 7.74928 14.0046 7.64288 14.0046 7.51157V5.73423C14.0046 5.60292 13.8842 5.49652 13.7331 5.49652Z" fill="white"/>
</svg>
