<svg width="22" height="21" viewBox="0 0 22 21" fill="none" xmlns="http://www.w3.org/2000/svg">
<path fill-rule="evenodd" clip-rule="evenodd" d="M11.0004 1.53113C15.9709 1.53113 20.0009 5.44192 20.0009 10.2657C20.0009 15.0894 15.9709 19.0002 11.0004 19.0002C6.02884 19.0002 1.99991 15.0894 1.99991 10.2657C1.99991 5.44192 6.02884 1.53113 11.0004 1.53113Z" fill="#007AFF"/>
<path fill-rule="evenodd" clip-rule="evenodd" d="M15.9928 5.41733C15.7202 5.15319 15.395 5.02095 15.0162 5.02095H6.98462C6.60471 5.02095 6.27846 5.15319 6.00803 5.41733C5.73543 5.68086 5.59858 5.99758 5.59858 6.36596V14.1614C5.59858 14.5298 5.73543 14.8465 6.00803 15.11C6.27846 15.3742 6.60471 15.5064 6.98462 15.5064H15.0162C15.395 15.5064 15.7202 15.3742 15.9928 15.11C16.2654 14.8465 16.4001 14.5298 16.4001 14.1614V6.36596C16.4001 5.99758 16.2654 5.68116 15.9928 5.41733ZM9.47751 8.79922C9.90121 8.40131 10.4114 8.20205 11.007 8.20205C11.608 8.20205 12.1193 8.40131 12.5441 8.79922C12.9678 9.19743 13.1802 9.67897 13.1802 10.2429C13.1802 10.8072 12.9678 11.2884 12.5441 11.6866C12.1193 12.0849 11.608 12.2841 11.007 12.2841C10.4114 12.2841 9.90121 12.0849 9.47751 11.6866C9.05382 11.2884 8.84033 10.8072 8.84033 10.2429C8.84033 9.67897 9.05382 9.19743 9.47751 8.79922ZM15.1771 13.8816C15.1771 14 15.1355 14.0987 15.0501 14.1783C14.9658 14.2583 14.8651 14.2979 14.748 14.2979H7.23095C7.10943 14.2979 7.00651 14.2583 6.9244 14.1783C6.84339 14.099 6.80178 14 6.80178 13.8816V9.45819H7.79369C7.69953 9.74478 7.65246 10.043 7.65246 10.3524C7.65246 11.226 7.9809 11.9714 8.63779 12.5879C9.29358 13.2048 10.084 13.5132 11.007 13.5132C11.6168 13.5132 12.1795 13.3718 12.6952 13.0898C13.2109 12.8075 13.6181 12.4243 13.9181 11.9394C14.2192 11.4548 14.3681 10.9259 14.3681 10.3524C14.3681 10.043 14.3221 9.74478 14.2279 9.45819H15.1771V13.8816ZM15.1771 7.786C15.1771 7.91762 15.1312 8.02923 15.037 8.12026C14.9428 8.21097 14.8279 8.25678 14.6921 8.25678H13.4681C13.3335 8.25678 13.2174 8.21097 13.1233 8.12026C13.0302 8.02923 12.9831 7.91762 12.9831 7.786V6.65932C12.9831 6.53202 13.0302 6.42163 13.1233 6.32846C13.2174 6.23497 13.3335 6.18854 13.4681 6.18854H14.6921C14.8279 6.18854 14.9428 6.23497 15.037 6.32846C15.1312 6.42163 15.1771 6.53202 15.1771 6.65932V7.786Z" fill="white"/>
</svg>
