<svg width="170" height="25" viewBox="0 0 170 25" fill="none" xmlns="http://www.w3.org/2000/svg">
<path fill-rule="evenodd" clip-rule="evenodd" d="M3.33741 17.0566C3.40576 18.2773 3.69385 19.2686 4.20166 20.0303C5.16846 21.4561 6.87255 22.1689 9.31397 22.1689C10.4077 22.1689 11.4038 22.0127 12.3022 21.7002C14.0405 21.0947 14.9097 20.0107 14.9097 18.4482C14.9097 17.2764 14.5435 16.4414 13.811 15.9434C13.0688 15.4551 11.9067 15.0303 10.3247 14.6689L7.40967 14.0098C5.50536 13.5801 4.15772 13.1064 3.3667 12.5889C1.99951 11.6904 1.31592 10.3477 1.31592 8.56055C1.31592 6.62694 1.98486 5.04005 3.32276 3.7998C4.66065 2.55956 6.55517 1.93945 9.00635 1.93945C11.2622 1.93945 13.1787 2.48388 14.7559 3.57275C16.333 4.66163 17.1216 6.40233 17.1216 8.79492H14.3823C14.2358 7.64257 13.9233 6.75879 13.4448 6.14355C12.5562 5.0205 11.0474 4.45898 8.91846 4.45898C7.1997 4.45898 5.96436 4.82031 5.21241 5.54297C4.46045 6.26563 4.08448 7.10546 4.08448 8.0625C4.08448 9.11719 4.52392 9.88867 5.40283 10.377C5.97901 10.6895 7.28271 11.0801 9.31397 11.5488L12.3315 12.2373C13.7866 12.5693 14.9097 13.0234 15.7007 13.5996C17.0679 14.6055 17.7515 16.0654 17.7515 17.9795C17.7515 20.3623 16.8848 22.0664 15.1514 23.0918C13.418 24.1172 11.4038 24.6299 9.10889 24.6299C6.43309 24.6299 4.33839 23.9463 2.82471 22.5791C1.31103 21.2217 0.56885 19.3809 0.598147 17.0566H3.33741ZM25.5161 2.48145H28.4605V11.373H39.6519V2.48145H42.5962V24H39.6519V13.9365H28.4605V24H25.5161V2.48145ZM88.4038 2.48145H78.7212V24H81.6362V14.9033H88.4038C90.5718 14.9033 92.1782 14.2808 93.2231 13.0356C94.2681 11.7905 94.7905 10.3281 94.7905 8.64844C94.7905 6.6953 94.2046 5.1792 93.0327 4.1001C91.8608 3.02099 90.3179 2.48145 88.4038 2.48145ZM91.8462 8.66309C91.8462 7.08105 91.2603 6.00684 90.0884 5.44043C89.4438 5.13769 88.5601 4.98633 87.437 4.98633H81.6362V12.4424H87.437C88.7456 12.4424 89.8076 12.1641 90.623 11.6074C91.4385 11.0508 91.8462 10.0693 91.8462 8.66309ZM112.414 2.48145H102.731V24H105.646V14.9033H112.414C114.582 14.9033 116.188 14.2808 117.233 13.0356C118.278 11.7905 118.8 10.3281 118.8 8.64844C118.8 6.6953 118.214 5.1792 117.042 4.1001C115.871 3.02099 114.328 2.48145 112.414 2.48145ZM115.856 8.66309C115.856 7.08105 115.27 6.00684 114.098 5.44043C113.454 5.13769 112.57 4.98633 111.447 4.98633H105.646V12.4424H111.447C112.755 12.4424 113.817 12.1641 114.633 11.6074C115.448 11.0508 115.856 10.0693 115.856 8.66309ZM142.429 2.48145H126.741V24H142.649V21.4365H129.583V14.1416H141.462V11.6514H129.583V5.11816H142.429V2.48145ZM160.477 12.3398C161.844 12.3398 162.926 12.0664 163.722 11.5195C164.518 10.9727 164.916 9.98633 164.916 8.56055C164.916 7.02734 164.359 5.98242 163.246 5.42578C162.65 5.13281 161.854 4.98633 160.858 4.98633H153.739V12.3398H160.477ZM160.785 2.48145H150.824V24H153.739V14.7715H160.375C161.566 14.7715 162.44 14.9033 162.997 15.167C163.973 15.6455 164.496 16.5879 164.564 17.9941L164.752 21.8268C164.789 22.5334 164.834 23.0186 164.886 23.2822C164.945 23.5752 165.023 23.8145 165.121 24H168.695V23.5166C168.246 23.3213 167.933 22.8818 167.757 22.1982C167.65 21.7978 167.582 21.1875 167.552 20.3672L167.45 17.4814C167.401 16.2314 167.164 15.3281 166.739 14.7715C166.314 14.2148 165.682 13.7656 164.842 13.4238C165.799 12.9258 166.544 12.2666 167.076 11.4463C167.608 10.626 167.875 9.5713 167.875 8.28223C167.875 5.81151 166.864 4.11719 164.842 3.19922C163.778 2.7207 162.425 2.48145 160.785 2.48145Z" fill="black"/>
<path fill-rule="evenodd" clip-rule="evenodd" d="M68.8325 5.55762C67.0063 3.1162 64.1939 1.89551 60.395 1.89551C56.7622 1.89551 54.0181 3.22362 52.1626 5.87988C50.7173 7.95021 49.9946 10.4404 49.9946 13.3506C49.9946 16.5733 50.8394 19.2392 52.5288 21.3486C54.4234 23.5361 57.0259 24.6299 60.3364 24.6299C63.8814 24.6299 66.6108 23.3799 68.5249 20.8799C70.1558 18.751 70.9712 16.0801 70.9712 12.8672C70.9712 9.89842 70.2583 7.46192 68.8325 5.55762ZM66.2617 19.2612C65.1143 21.1021 63.2564 22.0225 60.688 22.0225C57.9829 22.0225 56.0274 21.2046 54.8213 19.5688C53.6152 17.9331 53.0122 15.9238 53.0122 13.541C53.0122 10.5625 53.7153 8.30909 55.1216 6.78076C56.5278 5.25243 58.3442 4.48828 60.5708 4.48828C62.8657 4.48828 64.6748 5.25976 65.9981 6.80273C67.3213 8.34571 67.9829 10.3818 67.9829 12.9111C67.9829 15.3037 67.4092 17.4204 66.2617 19.2612Z" fill="#007AFF"/>
</svg>
