<svg width="22" height="24" viewBox="0 0 22 24" fill="none" xmlns="http://www.w3.org/2000/svg">
<path fill-rule="evenodd" clip-rule="evenodd" d="M19.8325 4.55762C18.0063 2.1162 15.1939 0.895508 11.395 0.895508C7.76219 0.895508 5.01808 2.22362 3.1626 4.87988C1.71728 6.95021 0.994633 9.44042 0.994633 12.3506C0.994633 15.5733 1.83935 18.2392 3.52881 20.3486C5.42335 22.5361 8.02587 23.6299 11.3364 23.6299C14.8814 23.6299 17.6108 22.3799 19.5249 19.8799C21.1558 17.751 21.9712 15.0801 21.9712 11.8672C21.9712 8.89842 21.2583 6.46192 19.8325 4.55762ZM17.2617 18.2612C16.1143 20.1021 14.2564 21.0225 11.688 21.0225C8.9829 21.0225 7.02735 20.2046 5.82129 18.5688C4.61523 16.9331 4.01221 14.9238 4.01221 12.541C4.01221 9.56248 4.71533 7.30909 6.12159 5.78076C7.52784 4.25243 9.34423 3.48828 11.5708 3.48828C13.8657 3.48828 15.6748 4.25976 16.9981 5.80273C18.3213 7.34571 18.9829 9.38182 18.9829 11.9111C18.9829 14.3037 18.4092 16.4204 17.2617 18.2612Z" fill="#007AFF"/>
</svg>
