<svg width="22" height="20" viewBox="0 0 22 20" fill="none" xmlns="http://www.w3.org/2000/svg">
<path fill-rule="evenodd" clip-rule="evenodd" d="M11.0004 1.28134C15.9709 1.28134 20.0009 5.19152 20.0009 10.0159C20.0009 14.8396 15.9709 18.7498 11.0004 18.7498C6.02884 18.7498 1.99991 14.8396 1.99991 10.0159C1.99991 5.19152 6.02884 1.28134 11.0004 1.28134Z" fill="#007AFF"/>
<path fill-rule="evenodd" clip-rule="evenodd" d="M7.55391 11.1939C8.22832 10.0977 7.33715 9.85722 7.19701 9.06294C6.62661 5.81512 11.2697 3.59742 13.7013 5.86648C15.3841 7.43781 14.275 12.2705 11.5631 11.7671C8.96514 11.288 12.8364 7.44149 10.7617 6.68688C9.07681 6.0728 8.18125 8.56355 8.98047 9.80125C8.51189 11.9301 7.50356 13.935 7.91192 16.6035C9.23666 15.7197 9.68443 14.0257 10.0501 12.2594C10.7158 12.6318 11.0727 13.0189 11.9211 13.0792C15.0523 13.3021 16.8019 10.2028 16.3727 7.34248C15.9928 4.80653 13.2459 3.51533 10.3151 3.81821C7.99841 4.05714 5.68945 5.78006 5.5931 8.24437C5.53507 9.74835 5.99928 10.8772 7.55391 11.1939Z" fill="white"/>
</svg>
