<svg width="169" height="24" viewBox="0 0 169 24" fill="none" xmlns="http://www.w3.org/2000/svg">
<path fill-rule="evenodd" clip-rule="evenodd" d="M3.33741 16.0566C3.40576 17.2773 3.69385 18.2686 4.20166 19.0303C5.16846 20.4561 6.87255 21.1689 9.31397 21.1689C10.4077 21.1689 11.4038 21.0127 12.3022 20.7002C14.0405 20.0947 14.9097 19.0107 14.9097 17.4482C14.9097 16.2764 14.5435 15.4414 13.811 14.9434C13.0688 14.4551 11.9067 14.0303 10.3247 13.6689L7.40967 13.0098C5.50536 12.5801 4.15772 12.1064 3.3667 11.5889C1.99951 10.6904 1.31592 9.34766 1.31592 7.56055C1.31592 5.62694 1.98486 4.04005 3.32276 2.7998C4.66065 1.55956 6.55517 0.939453 9.00635 0.939453C11.2622 0.939453 13.1787 1.48388 14.7559 2.57275C16.333 3.66163 17.1216 5.40233 17.1216 7.79492H14.3823C14.2358 6.64257 13.9233 5.75879 13.4448 5.14355C12.5562 4.0205 11.0474 3.45898 8.91846 3.45898C7.1997 3.45898 5.96436 3.82031 5.21241 4.54297C4.46045 5.26563 4.08448 6.10546 4.08448 7.0625C4.08448 8.11719 4.52392 8.88867 5.40283 9.37695C5.97901 9.68946 7.28271 10.0801 9.31397 10.5488L12.3315 11.2373C13.7866 11.5693 14.9097 12.0234 15.7007 12.5996C17.0679 13.6055 17.7515 15.0654 17.7515 16.9795C17.7515 19.3623 16.8848 21.0664 15.1514 22.0918C13.418 23.1172 11.4038 23.6299 9.10889 23.6299C6.43309 23.6299 4.33839 22.9463 2.82471 21.5791C1.31103 20.2217 0.56885 18.3809 0.598147 16.0566H3.33741ZM25.5161 1.48145H28.4605V10.373H39.6519V1.48145H42.5962V23H39.6519V12.9365H28.4605V23H25.5161V1.48145ZM88.4038 1.48145H78.7212V23H81.6362V13.9033H88.4038C90.5718 13.9033 92.1782 13.2808 93.2231 12.0356C94.2681 10.7905 94.7905 9.32813 94.7905 7.64844C94.7905 5.6953 94.2046 4.1792 93.0327 3.1001C91.8608 2.02099 90.3179 1.48145 88.4038 1.48145ZM91.8462 7.66309C91.8462 6.08105 91.2603 5.00684 90.0884 4.44043C89.4438 4.13769 88.5601 3.98633 87.437 3.98633H81.6362V11.4424H87.437C88.7456 11.4424 89.8076 11.1641 90.623 10.6074C91.4385 10.0508 91.8462 9.06934 91.8462 7.66309ZM112.414 1.48145H102.731V23H105.646V13.9033H112.414C114.582 13.9033 116.188 13.2808 117.233 12.0356C118.278 10.7905 118.8 9.32813 118.8 7.64844C118.8 5.6953 118.214 4.1792 117.042 3.1001C115.871 2.02099 114.328 1.48145 112.414 1.48145ZM115.856 7.66309C115.856 6.08105 115.27 5.00684 114.098 4.44043C113.454 4.13769 112.57 3.98633 111.447 3.98633H105.646V11.4424H111.447C112.755 11.4424 113.817 11.1641 114.633 10.6074C115.448 10.0508 115.856 9.06934 115.856 7.66309ZM142.429 1.48145H126.741V23H142.649V20.4365H129.583V13.1416H141.462V10.6514H129.583V4.11816H142.429V1.48145ZM160.477 11.3398C161.844 11.3398 162.926 11.0664 163.722 10.5195C164.518 9.97265 164.916 8.98633 164.916 7.56055C164.916 6.02734 164.359 4.98242 163.246 4.42578C162.65 4.13281 161.854 3.98633 160.858 3.98633H153.739V11.3398H160.477ZM160.785 1.48145H150.824V23H153.739V13.7715H160.375C161.566 13.7715 162.44 13.9033 162.997 14.167C163.973 14.6455 164.496 15.5879 164.564 16.9941L164.752 20.8268C164.789 21.5334 164.834 22.0186 164.886 22.2822C164.945 22.5752 165.023 22.8145 165.121 23H168.695V22.5166C168.246 22.3213 167.933 21.8818 167.757 21.1982C167.65 20.7978 167.582 20.1875 167.552 19.3672L167.45 16.4814C167.401 15.2314 167.164 14.3281 166.739 13.7715C166.314 13.2148 165.682 12.7656 164.842 12.4238C165.799 11.9258 166.544 11.2666 167.076 10.4463C167.608 9.62597 167.875 8.5713 167.875 7.28223C167.875 4.81151 166.864 3.11719 164.842 2.19922C163.778 1.7207 162.425 1.48145 160.785 1.48145Z" fill="black"/>
</svg>
