<svg width="21" height="20" viewBox="0 0 21 20" fill="none" xmlns="http://www.w3.org/2000/svg">
<path fill-rule="evenodd" clip-rule="evenodd" d="M11 1.25002C15.9705 1.25002 19.9994 5.1605 19.9994 9.98426C19.9994 14.8083 15.9705 18.7188 11 18.7188C6.0295 18.7188 1.99947 14.8083 1.99947 9.98426C1.99947 5.1605 6.0295 1.25002 11 1.25002Z" fill="#007AFF"/>
<path fill-rule="evenodd" clip-rule="evenodd" d="M17.2262 6.06547C16.7029 6.33545 16.1248 6.53194 15.5073 6.63804C15.0147 6.17863 14.3118 5.89327 13.5334 5.89327C12.04 5.89327 10.8281 6.94892 10.8281 8.24995C10.8281 8.43414 10.8533 8.61434 10.8982 8.78653C8.6516 8.68814 6.65794 7.74966 5.32334 6.32407C5.09014 6.67155 4.95877 7.07623 4.95877 7.50857C4.95877 8.32652 5.43611 9.04791 6.16088 9.47043C5.71747 9.4575 5.30035 9.35111 4.93578 9.1743V9.20382C4.93578 10.3459 5.86856 11.2979 7.10461 11.515C6.87798 11.5688 6.63931 11.5983 6.39189 11.5983C6.21781 11.5983 6.04922 11.5826 5.8828 11.555C6.22766 12.4916 7.22614 13.1727 8.40963 13.1927C7.48342 13.8243 6.31744 14.2007 5.05074 14.2007C4.83178 14.2007 4.6161 14.1896 4.4048 14.1684C5.60142 14.8369 7.0236 15.2274 8.55086 15.2274C13.5268 15.2274 16.2474 11.6358 16.2474 8.52117L16.2387 8.21582C16.7686 7.88495 17.2284 7.46952 17.5897 6.99781C17.1047 7.18477 16.5846 7.31176 16.0372 7.36865C16.5956 7.07745 17.0237 6.61466 17.2262 6.06547Z" fill="white"/>
</svg>
