<svg width="50" height="50" viewBox="0 0 50 50" fill="none" xmlns="http://www.w3.org/2000/svg">
<path fill-rule="evenodd" clip-rule="evenodd" d="M12.3902 3.5327C12.3902 3.62095 12.3902 3.68295 12.3902 3.74495C12.3902 10.5614 12.3885 17.3782 12.393 24.1947C12.3935 24.8892 12.4062 25.5854 12.4587 26.2774C12.5517 27.5014 12.8537 28.6807 13.3255 29.8139C14.467 32.5557 16.3455 34.6429 18.9387 36.0834C20.1227 36.7412 21.3907 37.1752 22.7235 37.4162C23.6785 37.5889 24.6425 37.6467 25.6102 37.5919C27.8252 37.4664 29.8747 36.8144 31.735 35.6012C34.1555 34.0224 35.8442 31.8629 36.7997 29.1352C37.1607 28.1049 37.3712 27.0422 37.4432 25.9522C37.6197 23.2837 37.0297 20.7972 35.629 18.5189C34.1615 16.1319 32.1107 14.4239 29.5067 13.3859C28.5045 12.9864 27.4647 12.7307 26.3922 12.6122C23.4422 12.2867 20.7097 12.9119 18.196 14.4909C18.169 14.5079 18.1397 14.5217 18.098 14.5442C18.0955 14.4874 18.0917 14.4437 18.0917 14.3999C18.0915 10.0124 18.092 5.62495 18.0885 1.23745C18.0885 1.1232 18.1255 1.0802 18.2297 1.05145C19.3545 0.741947 20.4945 0.507197 21.6502 0.351447C23.057 0.161697 24.471 0.101447 25.8887 0.152197C27.0297 0.192947 28.163 0.315447 29.2885 0.514197C32.1565 1.0202 34.858 1.9912 37.373 3.4572C41.9022 6.0967 45.2915 9.7912 47.5337 14.5322C48.4565 16.4834 49.094 18.5272 49.4765 20.6504C49.7942 22.4154 49.9182 24.1957 49.8487 25.9864C49.6845 30.2334 48.5232 34.1897 46.3457 37.8422C44.9077 40.2539 43.107 42.3597 40.9572 44.1664C39.0405 45.7769 36.9282 47.0687 34.6235 48.0452C33.0947 48.6929 31.5152 49.1787 29.8882 49.5079C27.974 49.8952 26.0387 50.0597 24.0882 49.9807C23.245 49.9467 22.4012 49.8682 21.5635 49.7637C19.3715 49.4902 17.2617 48.8989 15.2287 48.0377C12.6645 46.9512 10.3445 45.4769 8.27548 43.6127C5.56848 41.1737 3.48498 38.2839 2.03598 34.9389C1.24723 33.1174 0.69148 31.2272 0.35673 29.2704C0.0684802 27.5852 -0.0505198 25.8874 0.0194802 24.1812C0.25723 18.3904 2.25173 13.2777 5.99973 8.85795C7.78798 6.74945 9.88923 5.0042 12.269 3.5957C12.3 3.57745 12.333 3.5622 12.3902 3.5327Z" fill="#FFC700"/>
</svg>
